<svg version="1.1" xmlns="http://www.w3.org/2000/svg" style="display: block;" viewBox="0 0 2048 2048" width="1024" height="1024" preserveAspectRatio="none">
<path transform="translate(0,0)" fill="rgb(122,226,237)" d="M 419.715 1296.18 L 351.099 1296.24 C 336.775 1296.26 320.812 1296.95 306.682 1295.75 C 254.086 1291.29 214.034 1246.32 214.056 1194 C 214.079 1137.65 214.038 1081.83 214.025 1025.76 L 213.967 674.551 L 213.919 501.891 L 213.776 451.841 C 213.746 440.731 213.155 427.158 214.867 416.439 C 220.734 379.683 247.12 346.226 281.952 332.786 C 297.526 326.776 311.03 326.426 327.538 326.388 C 407.335 326.203 487.132 326.163 566.928 326.161 L 1012.29 326.174 L 1227.33 326.106 L 1291.41 326.092 C 1303.86 326.094 1318.5 325.55 1330.78 327.014 C 1370.83 331.789 1409.66 365.842 1418.45 405.374 C 1423.85 429.616 1421.58 464.392 1421.56 489.939 L 1421.95 594.134 L 1660.24 594.135 L 1727.06 594.03 C 1760.43 593.972 1784.13 591.293 1810.02 617.149 C 1829.57 636.687 1834.61 653.67 1834.57 680.977 C 1834.39 804.314 1834.53 927.673 1834.47 1051.02 L 1834.27 1163.73 C 1834.2 1181.98 1834.78 1206.06 1832.9 1223.4 C 1829.81 1241.08 1820.14 1258.26 1808.14 1270.88 C 1777.25 1303.36 1736.7 1296.26 1695.16 1296.24 L 1561.14 1296.23 C 1565.77 1284.74 1572.87 1266.41 1579.02 1256.18 C 1627.32 1255.46 1675.9 1256.69 1724.2 1256.15 C 1744.01 1255.93 1764.91 1259.05 1779.44 1242.58 C 1785.58 1235.62 1791.91 1228.86 1792.88 1218.92 C 1794.68 1199.97 1793.93 1180.44 1793.66 1161.41 C 1793.19 1133.14 1793 1104.86 1793.07 1076.59 L 1793.07 729.997 C 1708.64 727.906 1617.76 729.716 1532.95 729.882 C 1511.07 691.256 1492.37 668.948 1463.81 634.903 C 1457.71 634.885 1426.41 634.386 1422.11 635.771 L 1421.78 637.887 C 1434.09 651.239 1445.97 664.987 1457.4 679.11 C 1516.11 747.466 1578.97 880.932 1580.27 971.953 C 1609.27 971.922 1639.51 971.458 1668.41 972.037 C 1641.07 1021.95 1608.51 1071.32 1582.09 1121.87 C 1576.5 1136.6 1575.78 1153.04 1571.6 1168.16 C 1564.57 1193.63 1556.99 1220.29 1547.72 1245.04 C 1495.45 1384.64 1376.8 1506.97 1240.12 1563.83 C 1231.44 1568.3 1214.64 1574.32 1204.94 1578 C 1204.75 1603.91 1205.33 1630.26 1204.75 1656.02 C 1203.88 1673.94 1195.18 1692.7 1181.61 1704.34 C 1158.4 1724.24 1135.84 1721.66 1107.66 1721.62 L 1047.09 1721.61 L 836.435 1721.76 L 593.008 1721.77 L 521.673 1721.88 C 507.062 1721.93 492.887 1721.9 478.048 1721.21 C 452.803 1720.03 423.165 1690.11 420.25 1665.38 C 418.033 1646.57 419.082 1621.68 419.087 1601.99 L 419.156 1483 L 419.022 1359.44 C 419.016 1343.33 418.085 1311.08 419.715 1296.18 z M 629.005 1101.09 C 601.649 1101.72 573.392 1100.9 546.435 1101.82 C 550.853 1123.8 555.309 1150.78 561.64 1172.18 C 603.936 1173.33 650.571 1172.29 693.289 1172.46 L 967.86 1172.82 L 1084.2 1172.25 C 1102.68 1172.24 1121.65 1172.08 1140.07 1172.55 C 1149.6 1173.52 1158.82 1173.74 1167.33 1178.6 C 1200.32 1197.42 1205.16 1221.28 1205.06 1255.96 L 1285.8 1256.05 C 1300.42 1256.06 1319 1257.05 1333.12 1254.27 C 1351.27 1250.7 1375.23 1229.72 1378.29 1211.07 C 1382.67 1184.45 1380.8 1154.17 1380.78 1126.89 L 1381.06 976.665 C 1393.64 993.942 1410.92 1026.69 1422.26 1046.37 C 1432.24 1062.77 1458.33 1105.35 1464.72 1121.8 C 1459.74 1148.66 1449.99 1188.12 1438.44 1213.17 L 1419.48 1213.22 C 1412.34 1235.14 1410.27 1236.23 1400.22 1255.86 L 1415.86 1255.85 C 1410.22 1268.6 1401.43 1285.66 1391.85 1295.93 C 1330.96 1297.62 1266.17 1295.74 1204.84 1296.23 L 1205.02 1489.3 C 1217.29 1484.47 1226.85 1479.79 1238.76 1474 C 1254.15 1466.02 1269.74 1457.66 1284.23 1448.14 C 1377.07 1387 1446.39 1296.13 1480.84 1190.43 C 1489.04 1165.21 1494.37 1139 1499.73 1113.06 C 1491.75 1101.81 1478.74 1078.07 1471.26 1065.27 C 1453.05 1034.35 1435.14 1003.25 1417.54 971.978 C 1444.88 971.685 1472.72 971.982 1500.1 972.018 C 1491.78 914.883 1477.16 871.807 1453.12 819.644 C 1444.72 804.395 1433.09 782.36 1421.94 769.585 C 1421.82 790.388 1421.27 812.989 1422.15 833.64 C 1439.52 860.848 1454.5 907.428 1461.64 939.007 L 1421.77 939.161 C 1408.92 938.739 1393.91 939.139 1380.9 939.163 L 1380.82 712.376 C 1365.03 696.771 1349.39 681.096 1332.8 666.931 C 1117.71 483.263 783.095 529.438 627.234 766.017 C 582.205 834.365 565.47 882.341 548.806 962.129 C 554.726 975.109 566.826 994.281 574.433 1007.11 L 609.383 1066.83 C 615.472 1077.09 624.251 1090.64 629.005 1101.09 z M 254.139 461.875 L 254.369 972.838 L 254.23 1121.95 C 254.199 1135.46 254.033 1149.01 254.152 1162.61 C 254.44 1191.18 250.786 1215.79 273.022 1237.56 C 297.283 1261.31 325.731 1255.9 356.698 1256.11 C 375.51 1256.23 395.105 1256.27 413.901 1255.72 C 415.566 1255.67 417.231 1255.62 418.895 1255.55 C 418.939 1238.59 417.876 1224.62 426.19 1209.01 C 438.456 1185.99 453.653 1177.34 478.493 1172.64 C 472.836 1155.32 467.171 1118.87 466.696 1101.04 C 439.329 1102.11 406.134 1101.54 378.491 1101.16 C 386.138 1086.24 399.659 1064.66 408.411 1050 L 443.597 989.911 C 451.469 976.718 461.686 960.968 468.338 947.469 C 473.288 935.641 474.212 921.348 477.138 909.003 C 496.664 826.623 533.653 751.962 585.406 685.641 C 676.214 570.324 808.771 495.394 954.4 477.06 C 1074.89 462.204 1196.96 486.709 1302.38 546.919 C 1329.55 562.543 1356.13 581.64 1380.77 600.937 C 1381.5 584.681 1381.02 564.59 1381.07 548.098 C 1381.29 519.401 1381.27 490.704 1381.01 462.007 C 1315.53 460.909 1249.54 462.656 1184.05 461.406 C 1169.58 459.832 1155.35 453.857 1141.07 451.389 C 1055.14 436.544 965.626 434.763 881.053 458.334 C 860.971 463.93 832.791 462.035 811.671 461.991 L 724.823 461.847 L 462.189 461.918 C 458.141 447.093 456.243 436.849 446.368 424.413 C 434.229 409.126 417.389 399.266 397.862 397.217 C 378.143 395.058 358.387 400.945 343.065 413.545 C 326.145 427.438 319.59 440.572 317.57 461.873 L 254.139 461.875 z M 1164.68 1255.91 C 1164.65 1234.21 1166.24 1225.15 1146.19 1212.11 C 1092.89 1213.5 1036.13 1211.96 982.398 1212.26 C 847.028 1213.03 711.078 1211.13 575.758 1212.86 C 579.499 1223.85 583.943 1236.87 589.071 1247.17 C 595.443 1261.73 604.834 1277.71 613.052 1291.39 C 668.254 1383.11 752.124 1454.09 851.702 1493.37 C 950.733 1532.1 1063.26 1538.29 1164.66 1504.81 C 1164.21 1493.54 1164.11 1482.25 1164.36 1470.98 C 1069.85 1498.48 998.726 1503.33 902.965 1476.12 C 878.55 1468.86 854.788 1459.57 831.928 1448.34 C 796.913 1430.16 768.532 1413.48 738.205 1387.87 C 725.306 1375.78 695.65 1347.66 685.342 1335.18 C 670.148 1318.2 641.372 1276.23 631.44 1255.85 C 664.301 1256.12 697.163 1256.23 730.025 1256.16 L 817.413 1256.08 L 941.013 1256.03 L 1021.16 1256.08 C 1068.5 1256.68 1117.23 1256 1164.68 1255.91 z M 667.198 1519.21 C 693.958 1538.58 719.255 1557.19 749.304 1571.11 C 752.516 1572.6 758.64 1575.62 761.296 1577.51 C 785.639 1589.48 806.302 1598.94 832.121 1607.55 C 851.573 1613.83 874.67 1621.87 894.484 1626.18 C 967.122 1641.98 1042.35 1644.47 1115.89 1633.69 C 1134.57 1630.95 1147.73 1626.21 1164.62 1623.03 C 1164.85 1611.75 1164.64 1600.09 1164.59 1588.78 C 1115.78 1605.95 1036.19 1609.9 984.268 1606.52 C 813.497 1595.37 654.723 1498.2 559.098 1357.55 C 535.99 1323.57 516.974 1284.52 501.22 1247.25 C 496.392 1235.26 492.43 1225.15 488.432 1212.88 C 460.915 1213.51 458.661 1232.46 459.084 1254.74 C 462.156 1255.21 470.334 1255.88 471.565 1259.22 C 501.306 1339.92 549.867 1411.17 611.324 1471.04 C 632.606 1491.75 643.818 1501.37 667.198 1519.21 z"/>
<path transform="translate(0,0)" fill="rgb(58,166,172)" d="M 686.546 1132.96 C 682.596 1125.42 677.506 1117.44 673.109 1110.07 C 652.59 1075.68 632.69 1040.96 612.845 1006.18 C 603.928 990.55 593.048 975.834 585.305 959.581 C 583.923 956.681 584.661 951.507 585.018 948.397 C 608.676 837.929 670.469 741.229 760.149 673.917 C 827.383 624.185 907.362 594.577 990.772 588.541 C 1030.86 585.95 1066.26 588.84 1105.78 594.46 C 1122.56 597.523 1162.67 606.303 1177.75 614.225 C 1219.51 630.459 1239.1 641.129 1276.37 664.474 C 1289.87 673.973 1325.57 702.443 1336.78 714.722 C 1338.78 717.208 1338.61 720.203 1338.62 723.44 C 1338.86 822.282 1338.65 921.268 1338.69 1020.11 L 1338.63 1133.07 C 1338.54 1150.59 1338.53 1168.96 1337.89 1186.5 C 1337.63 1193.63 1331.29 1201.74 1325.64 1206.02 C 1321.18 1209.41 1315.96 1211.68 1310.43 1212.63 C 1301.25 1214.24 1247.54 1213.14 1234.9 1213.03 C 1224.86 1184.83 1210.58 1163.53 1182.96 1149.91 C 1155.38 1136.31 1118.44 1139.53 1087.44 1139.61 C 1068.41 1140.1 1047.67 1139.65 1028.51 1139.63 L 882.076 1139.27 C 853.98 1139.59 825.565 1139.37 797.443 1139.34 C 783.083 1139.49 768.722 1139.48 754.362 1139.31 C 732.99 1137.85 707.23 1140.96 686.635 1138.5 C 686.725 1136.76 686.598 1134.72 686.546 1132.96 z"/>
<path transform="translate(0,0)" fill="rgb(58,166,172)" d="M 882.076 1139.27 C 884.282 1132.17 897.099 1110.62 901.525 1102.81 L 940.768 1033.49 L 1105.25 742.589 C 1125.18 706.603 1145.38 670.771 1165.85 635.097 C 1166.69 633.661 1177.53 614.464 1177.75 614.225 C 1219.51 630.459 1239.1 641.129 1276.37 664.474 C 1289.87 673.973 1325.57 702.443 1336.78 714.722 C 1338.78 717.208 1338.61 720.203 1338.62 723.44 C 1338.86 822.282 1338.65 921.268 1338.69 1020.11 L 1338.63 1133.07 C 1338.54 1150.59 1338.53 1168.96 1337.89 1186.5 C 1337.63 1193.63 1331.29 1201.74 1325.64 1206.02 C 1321.18 1209.41 1315.96 1211.68 1310.43 1212.63 C 1301.25 1214.24 1247.54 1213.14 1234.9 1213.03 C 1224.86 1184.83 1210.58 1163.53 1182.96 1149.91 C 1155.38 1136.31 1118.44 1139.53 1087.44 1139.61 C 1068.41 1140.1 1047.67 1139.65 1028.51 1139.63 L 882.076 1139.27 z"/>
<path transform="translate(0,0)" fill="rgb(254,110,81)" d="M 1336.78 714.722 C 1338.78 717.208 1338.61 720.203 1338.62 723.44 C 1338.86 822.282 1338.65 921.268 1338.69 1020.11 L 1338.63 1133.07 C 1338.54 1150.59 1338.53 1168.96 1337.89 1186.5 C 1337.63 1193.63 1331.29 1201.74 1325.64 1206.02 C 1321.18 1209.41 1315.96 1211.68 1310.43 1212.63 C 1301.25 1214.24 1247.54 1213.14 1234.9 1213.03 C 1224.86 1184.83 1210.58 1163.53 1182.96 1149.91 C 1155.38 1136.31 1118.44 1139.53 1087.44 1139.61 C 1088.54 1139.41 1095.49 1138.11 1095.51 1138.07 C 1103.62 1121.35 1116.38 1098.52 1125.27 1082.88 L 1269.94 827.182 C 1279.48 810.372 1327.27 722.963 1336.78 714.722 z"/>
<path transform="translate(0,0)" fill="rgb(247,135,109)" d="M 1276.37 664.474 C 1289.87 673.973 1325.57 702.443 1336.78 714.722 C 1327.27 722.963 1279.48 810.372 1269.94 827.182 L 1125.27 1082.88 C 1116.38 1098.52 1103.62 1121.35 1095.51 1138.07 C 1095.49 1138.11 1088.54 1139.41 1087.44 1139.61 C 1068.41 1140.1 1047.67 1139.65 1028.51 1139.63 C 1023.67 1139.04 1013.28 1139.1 1008.01 1138.99 C 1011.9 1129.45 1019.05 1117.67 1024.27 1108.46 L 1050.36 1062.34 L 1142.93 898.997 L 1230.85 743.52 L 1259.4 692.981 C 1264.24 684.487 1270.91 672.066 1276.37 664.474 z"/>
<path transform="translate(0,0)" fill="rgb(54,171,173)" d="M 1105.78 594.46 C 1122.56 597.523 1162.67 606.303 1177.75 614.225 C 1177.53 614.464 1166.69 633.661 1165.85 635.097 C 1145.38 670.771 1125.18 706.603 1105.25 742.589 L 940.768 1033.49 L 901.525 1102.81 C 897.099 1110.62 884.282 1132.17 882.076 1139.27 C 853.98 1139.59 825.565 1139.37 797.443 1139.34 C 811.061 1117.39 828.158 1085.44 841.102 1062.41 L 913.868 933.356 L 1105.78 594.46 z"/>
<path transform="translate(0,0)" fill="rgb(54,171,173)" d="M 754.362 1139.31 C 749.217 1139.57 744.152 1139.57 739.004 1139.61 L 641.6 1139.92 C 633.046 1139.92 591.038 1141.3 587.219 1137.54 C 592.456 1131.23 616.302 1133.24 625.055 1133.17 C 645.551 1132.98 666.049 1132.91 686.546 1132.96 C 686.598 1134.72 686.725 1136.76 686.635 1138.5 C 707.23 1140.96 732.99 1137.85 754.362 1139.31 z"/>
<path transform="translate(0,0)" fill="rgb(58,166,172)" d="M 347.041 646.025 C 346.085 594.353 347.459 542.327 346.753 490.62 C 346.646 482.826 345.983 467.648 347.4 460.742 C 351.474 440.885 370.147 426.605 389.998 426.975 C 401.39 427.174 412.186 432.1 419.803 440.573 C 436.873 459.333 430.508 486.334 431.8 509.747 C 432.189 516.791 431.816 525.695 431.423 532.735 C 431.298 569.551 431.985 609.159 431.151 645.775 C 452.929 658.95 466.997 675.162 473.297 700.445 C 478.632 722.687 474.882 746.138 462.878 765.608 C 446.58 791.937 418.969 804.844 388.849 806.059 C 382.832 805.348 375.876 805.528 370.106 803.87 C 293.041 781.721 277.453 688.703 347.041 646.025 z M 374.866 669.75 C 370.15 671.541 365.671 673.084 361.355 675.869 C 325.052 699.3 327.209 752.099 368.68 768.815 C 375.469 771.551 381.664 772.697 388.974 773.951 C 426.156 774.861 452.932 732.316 437.191 698.996 C 428.761 681.153 420.316 676.612 403.171 670.12 L 403.584 530.771 C 393.767 530.034 384.692 530.287 374.883 530.436 L 374.866 669.75 z"/>
<path transform="translate(0,0)" fill="rgb(254,110,81)" d="M 403.584 530.771 C 410.703 531.02 424.663 530.532 430.383 531.603 L 431.423 532.735 C 431.298 569.551 431.985 609.159 431.151 645.775 C 452.929 658.95 466.997 675.162 473.297 700.445 C 478.632 722.687 474.882 746.138 462.878 765.608 C 446.58 791.937 418.969 804.844 388.849 806.059 L 388.974 773.951 C 426.156 774.861 452.932 732.316 437.191 698.996 C 428.761 681.153 420.316 676.612 403.171 670.12 L 403.584 530.771 z"/>
<path transform="translate(0,0)" fill="rgb(58,166,172)" d="M 1294.81 504.231 C 1309.11 505.397 1323.74 505.301 1338.07 505.109 C 1338.29 513.351 1338.13 521.347 1337.99 529.58 C 1330.66 525.511 1299.85 508.944 1294.81 504.231 z"/>
<path transform="translate(0,0)" fill="rgb(253,171,8)" d="M 378.491 1101.16 C 386.138 1086.24 399.659 1064.66 408.411 1050 L 443.597 989.911 C 451.469 976.718 461.686 960.968 468.338 947.469 C 473.288 935.641 474.212 921.348 477.138 909.003 C 496.664 826.623 533.653 751.962 585.406 685.641 C 676.214 570.324 808.771 495.394 954.4 477.06 C 1074.89 462.204 1196.96 486.709 1302.38 546.919 C 1329.55 562.543 1356.13 581.64 1380.77 600.937 C 1381.06 637.232 1381.54 676.132 1380.82 712.376 C 1365.03 696.771 1349.39 681.096 1332.8 666.931 C 1117.71 483.263 783.095 529.438 627.234 766.017 C 582.205 834.365 565.47 882.341 548.806 962.129 C 554.726 975.109 566.826 994.281 574.433 1007.11 L 609.383 1066.83 C 615.472 1077.09 624.251 1090.64 629.005 1101.09 C 601.649 1101.72 573.392 1100.9 546.435 1101.82 C 550.853 1123.8 555.309 1150.78 561.64 1172.18 C 533.923 1172.07 506.206 1172.22 478.493 1172.64 C 472.836 1155.32 467.171 1118.87 466.696 1101.04 C 439.329 1102.11 406.134 1101.54 378.491 1101.16 z"/>
<path transform="translate(0,0)" fill="rgb(253,171,8)" d="M 1421.78 637.887 C 1434.09 651.239 1445.97 664.987 1457.4 679.11 C 1516.11 747.466 1578.97 880.932 1580.27 971.953 C 1609.27 971.922 1639.51 971.458 1668.41 972.037 C 1641.07 1021.95 1608.51 1071.32 1582.09 1121.87 C 1576.5 1136.6 1575.78 1153.04 1571.6 1168.16 C 1564.57 1193.63 1556.99 1220.29 1547.72 1245.04 C 1495.45 1384.64 1376.8 1506.97 1240.12 1563.83 C 1231.44 1568.3 1214.64 1574.32 1204.94 1578 L 1205.02 1489.3 C 1217.29 1484.47 1226.85 1479.79 1238.76 1474 C 1254.15 1466.02 1269.74 1457.66 1284.23 1448.14 C 1377.07 1387 1446.39 1296.13 1480.84 1190.43 C 1489.04 1165.21 1494.37 1139 1499.73 1113.06 C 1491.75 1101.81 1478.74 1078.07 1471.26 1065.27 C 1453.05 1034.35 1435.14 1003.25 1417.54 971.978 C 1444.88 971.685 1472.72 971.982 1500.1 972.018 C 1491.78 914.883 1477.16 871.807 1453.12 819.644 C 1444.72 804.395 1433.09 782.36 1421.94 769.585 C 1419.43 731.655 1421.63 676.791 1421.78 637.887 z"/>
<path transform="translate(0,0)" fill="rgb(216,142,16)" d="M 1421.78 637.887 C 1434.09 651.239 1445.97 664.987 1457.4 679.11 C 1456.79 679.77 1456.19 680.431 1455.59 681.092 C 1451.99 714.066 1458.47 791.094 1453.12 819.644 C 1444.72 804.395 1433.09 782.36 1421.94 769.585 C 1419.43 731.655 1421.63 676.791 1421.78 637.887 z"/>
<path transform="translate(0,0)" fill="rgb(216,142,16)" d="M 1205.02 1489.3 C 1217.29 1484.47 1226.85 1479.79 1238.76 1474 C 1238.96 1486.12 1237.87 1559.01 1240.12 1563.83 C 1231.44 1568.3 1214.64 1574.32 1204.94 1578 L 1205.02 1489.3 z"/>
<path transform="translate(0,0)" fill="rgb(74,190,235)" d="M 254.139 461.875 C 254.321 433.015 251.716 407.019 273.876 384.936 C 295.952 362.935 324.486 367.03 353.284 366.982 L 426.041 366.924 L 661.861 366.962 L 1096.17 366.952 C 1170.24 366.946 1244.45 366.88 1318.53 367.052 C 1335.24 367.091 1352.1 374.216 1363.61 386.473 C 1384.55 408.791 1380.62 434.151 1381.01 462.007 C 1315.53 460.909 1249.54 462.656 1184.05 461.406 C 1169.58 459.832 1155.35 453.857 1141.07 451.389 C 1055.14 436.544 965.626 434.763 881.053 458.334 C 860.971 463.93 832.791 462.035 811.671 461.991 L 724.823 461.847 L 462.189 461.918 C 458.141 447.093 456.243 436.849 446.368 424.413 C 434.229 409.126 417.389 399.266 397.862 397.217 C 378.143 395.058 358.387 400.945 343.065 413.545 C 326.145 427.438 319.59 440.572 317.57 461.873 L 254.139 461.875 z"/>
<path transform="translate(0,0)" fill="rgb(74,190,235)" d="M 1463.81 634.903 L 1674.71 635.016 L 1731.01 634.967 C 1735.86 634.956 1741.46 635.158 1746.23 634.925 C 1801.09 632.242 1794.01 676.894 1793.33 717.275 L 1793.07 729.997 C 1708.64 727.906 1617.76 729.716 1532.95 729.882 C 1511.07 691.256 1492.37 668.948 1463.81 634.903 z"/>
<path transform="translate(0,0)" fill="rgb(254,110,81)" d="M 1422.26 1046.37 C 1432.24 1062.77 1458.33 1105.35 1464.72 1121.8 C 1459.74 1148.66 1449.99 1188.12 1438.44 1213.17 L 1419.48 1213.22 C 1422.79 1202.09 1421.44 1172.23 1421.73 1159.41 C 1422.56 1122.69 1420.13 1082.84 1422.26 1046.37 z"/>
<path transform="translate(0,0)" fill="rgb(254,110,81)" d="M 1422.15 833.64 C 1439.52 860.848 1454.5 907.428 1461.64 939.007 L 1421.77 939.161 C 1421.58 904.832 1420.91 867.729 1422.15 833.64 z"/>
<path transform="translate(0,0)" fill="rgb(254,110,81)" d="M 1021.16 1256.08 C 1068.5 1256.68 1117.23 1256 1164.68 1255.91 C 1164.75 1326.12 1166.09 1401.04 1164.36 1470.98 C 1069.85 1498.48 998.726 1503.33 902.965 1476.12 C 878.55 1468.86 854.788 1459.57 831.928 1448.34 C 796.913 1430.16 768.532 1413.48 738.205 1387.87 C 725.306 1375.78 695.65 1347.66 685.342 1335.18 C 670.148 1318.2 641.372 1276.23 631.44 1255.85 C 664.301 1256.12 697.163 1256.23 730.025 1256.16 L 817.413 1256.08 L 941.013 1256.03 L 1021.16 1256.08 z"/>
<path transform="translate(0,0)" fill="rgb(58,166,172)" d="M 631.44 1255.85 C 664.301 1256.12 697.163 1256.23 730.025 1256.16 L 817.413 1256.08 L 941.013 1256.03 C 913.605 1302.47 888.066 1349.61 861.409 1396.42 C 855.073 1407.45 848.803 1418.52 842.598 1429.62 C 840.296 1433.76 834.497 1444.89 831.928 1448.34 C 796.913 1430.16 768.532 1413.48 738.205 1387.87 C 725.306 1375.78 695.65 1347.66 685.342 1335.18 C 670.148 1318.2 641.372 1276.23 631.44 1255.85 z"/>
<path transform="translate(0,0)" fill="rgb(54,171,173)" d="M 631.44 1255.85 C 664.301 1256.12 697.163 1256.23 730.025 1256.16 L 817.413 1256.08 C 816.186 1256.55 814.958 1257.02 813.73 1257.49 C 791.776 1294.65 771.597 1333.01 749.961 1370.4 C 746.954 1375.6 742.685 1384.27 738.205 1387.87 C 725.306 1375.78 695.65 1347.66 685.342 1335.18 C 670.148 1318.2 641.372 1276.23 631.44 1255.85 z"/>
<path transform="translate(0,0)" fill="rgb(58,166,172)" d="M 631.44 1255.85 C 664.301 1256.12 697.163 1256.23 730.025 1256.16 C 725.775 1265.76 690.376 1329.8 685.342 1335.18 C 670.148 1318.2 641.372 1276.23 631.44 1255.85 z"/>
<path transform="translate(0,0)" fill="rgb(247,135,109)" d="M 941.013 1256.03 L 1021.16 1256.08 L 1024.6 1257.7 C 1024.38 1261.99 913.581 1455.99 902.965 1476.12 C 878.55 1468.86 854.788 1459.57 831.928 1448.34 C 834.497 1444.89 840.296 1433.76 842.598 1429.62 C 848.803 1418.52 855.073 1407.45 861.409 1396.42 C 888.066 1349.61 913.605 1302.47 941.013 1256.03 z"/>
<path transform="translate(0,0)" fill="rgb(58,166,172)" d="M 459.084 1254.74 C 462.156 1255.21 470.334 1255.88 471.565 1259.22 C 501.306 1339.92 549.867 1411.17 611.324 1471.04 C 632.606 1491.75 643.818 1501.37 667.198 1519.21 C 693.958 1538.58 719.255 1557.19 749.304 1571.11 C 752.516 1572.6 758.64 1575.62 761.296 1577.51 C 785.639 1589.48 806.302 1598.94 832.121 1607.55 C 825.893 1617.03 793.753 1670.95 791.761 1679.52 C 793.386 1680.06 795.018 1680.66 796.679 1681.03 L 704.779 1680.93 C 691.599 1681.49 675.228 1681.02 661.649 1681.02 L 578.265 1681.02 L 492.744 1680.94 L 491.383 1680.95 C 476.697 1681.03 460.899 1675.15 459.474 1658.21 C 458.284 1644.05 458.89 1629 458.89 1614.71 L 458.889 1531.34 L 459.084 1254.74 z"/>
<path transform="translate(0,0)" fill="rgb(58,166,172)" d="M 667.198 1519.21 C 693.958 1538.58 719.255 1557.19 749.304 1571.11 C 752.516 1572.6 758.64 1575.62 761.296 1577.51 C 785.639 1589.48 806.302 1598.94 832.121 1607.55 C 825.893 1617.03 793.753 1670.95 791.761 1679.52 C 793.386 1680.06 795.018 1680.66 796.679 1681.03 L 704.779 1680.93 C 691.599 1681.49 675.228 1681.02 661.649 1681.02 L 578.265 1681.02 C 585.125 1664.41 596.089 1647.47 604.493 1631.64 C 624.041 1594.81 648.757 1556.26 667.198 1519.21 z"/>
<path transform="translate(0,0)" fill="rgb(247,135,109)" d="M 761.296 1577.51 C 785.639 1589.48 806.302 1598.94 832.121 1607.55 C 825.893 1617.03 793.753 1670.95 791.761 1679.52 C 793.386 1680.06 795.018 1680.66 796.679 1681.03 L 704.779 1680.93 C 707.153 1669.89 752.737 1592.52 761.296 1577.51 z"/>
<path transform="translate(0,0)" fill="rgb(54,171,173)" d="M 611.324 1471.04 C 632.606 1491.75 643.818 1501.37 667.198 1519.21 C 648.757 1556.26 624.041 1594.81 604.493 1631.64 C 596.089 1647.47 585.125 1664.41 578.265 1681.02 L 492.744 1680.94 C 522.578 1632.99 548.643 1579.64 577.815 1531 C 588.702 1512.85 602.43 1489.9 611.324 1471.04 z"/>
<path transform="translate(0,0)" fill="rgb(253,171,8)" d="M 488.432 1212.88 C 517.303 1212.82 546.949 1212.42 575.758 1212.86 C 579.499 1223.85 583.943 1236.87 589.071 1247.17 C 595.443 1261.73 604.834 1277.71 613.052 1291.39 C 668.254 1383.11 752.124 1454.09 851.702 1493.37 C 950.733 1532.1 1063.26 1538.29 1164.66 1504.81 C 1165.32 1531.31 1165.38 1562.28 1164.59 1588.78 C 1115.78 1605.95 1036.19 1609.9 984.268 1606.52 C 813.497 1595.37 654.723 1498.2 559.098 1357.55 C 535.99 1323.57 516.974 1284.52 501.22 1247.25 C 496.392 1235.26 492.43 1225.15 488.432 1212.88 z"/>
<path transform="translate(0,0)" fill="rgb(216,142,16)" d="M 488.432 1212.88 C 517.303 1212.82 546.949 1212.42 575.758 1212.86 C 579.499 1223.85 583.943 1236.87 589.071 1247.17 C 562.243 1247.97 528.61 1247.52 501.22 1247.25 C 496.392 1235.26 492.43 1225.15 488.432 1212.88 z"/>
<path transform="translate(0,0)" fill="rgb(254,110,81)" d="M 832.121 1607.55 C 851.573 1613.83 874.67 1621.87 894.484 1626.18 C 967.122 1641.98 1042.35 1644.47 1115.89 1633.69 C 1134.57 1630.95 1147.73 1626.21 1164.62 1623.03 C 1164.2 1646.28 1170.42 1678.74 1137.83 1680.55 C 1124.75 1681.27 1112.01 1681.06 1098.92 1681.06 L 1029.34 1681.02 L 796.679 1681.03 C 795.018 1680.66 793.386 1680.06 791.761 1679.52 C 793.753 1670.95 825.893 1617.03 832.121 1607.55 z"/>
<path transform="translate(0,0)" fill="rgb(254,110,81)" d="M 1741.81 773.482 L 1750.04 773.655 C 1751.33 808.463 1750.71 846.109 1750.68 881.148 L 1750.61 1056.29 L 1750.79 1148.62 C 1750.81 1164.6 1751.43 1182.86 1749.65 1198.68 C 1748.89 1205.48 1742.73 1209.32 1737.41 1212.89 C 1691.83 1214.31 1639.62 1213.1 1593.56 1213.05 C 1595.47 1200.98 1600.85 1184.37 1603.58 1171.98 C 1605.47 1163.43 1609.15 1140.84 1612.35 1134.11 C 1616.55 1125.26 1626.41 1109.65 1631.94 1100.31 C 1647.64 1071.95 1663.79 1043.83 1680.38 1015.97 C 1694.9 991.606 1711.79 964.188 1724.81 939.147 C 1686.4 938.772 1647.98 938.76 1609.57 939.108 C 1605.19 889.671 1577.18 819.178 1557.77 773.81 C 1618.04 772.375 1681.09 774.19 1741.81 773.482 z"/>
</svg>